<?xml version="1.0" encoding="UTF-8" standalone="no"?>
<!DOCTYPE svg PUBLIC "-//W3C//DTD SVG 1.1//EN" "http://www.w3.org/Graphics/SVG/1.1/DTD/svg11.dtd">
<svg xmlns="http://www.w3.org/2000/svg" version="1.1" viewBox="0.00 0.00 133.00 133.00">
<g stroke-width="2.00" fill="none" stroke-linecap="butt">
<path stroke="#ababcf" vector-effect="non-scaling-stroke" d="
  M 12.80 62.74
  A 0.39 0.39 0.0 0 0 13.17 63.26
  L 34.33 63.27
  A 0.39 0.39 0.0 0 0 34.69 63.01
  L 47.45 27.86
  A 0.39 0.39 0.0 0 0 47.08 27.34
  L 25.96 27.30
  A 0.39 0.39 0.0 0 0 25.60 27.56
  L 12.80 62.74"
/>
<path stroke="#b8b2d2" vector-effect="non-scaling-stroke" d="
  M 72.72 27.58
  A 0.41 0.41 0.0 0 0 72.33 27.31
  L 51.25 27.31
  A 0.41 0.41 0.0 0 0 50.86 27.86
  L 63.63 62.99
  A 0.41 0.41 0.0 0 0 64.02 63.26
  L 85.11 63.23
  A 0.41 0.41 0.0 0 0 85.49 62.68
  L 72.72 27.58"
/>
<path stroke="#ddcad6" vector-effect="non-scaling-stroke" d="
  M 90.24 62.58
  A 0.48 0.48 0.0 0 0 90.69 63.22
  L 111.64 63.26
  A 0.48 0.48 0.0 0 0 112.10 62.94
  L 124.85 27.98
  A 0.48 0.48 0.0 0 0 124.39 27.34
  L 103.43 27.32
  A 0.48 0.48 0.0 0 0 102.97 27.64
  L 90.24 62.58"
/>
<path stroke="#b8b2d2" vector-effect="non-scaling-stroke" d="
  M 34.74 70.30
  A 0.40 0.40 0.0 0 0 34.36 70.04
  L 13.27 70.07
  A 0.40 0.40 0.0 0 0 12.89 70.61
  L 25.57 105.49
  A 0.40 0.40 0.0 0 0 25.95 105.75
  L 47.08 105.75
  A 0.40 0.40 0.0 0 0 47.45 105.21
  L 34.74 70.30"
/>
<path stroke="#c8bad6" vector-effect="non-scaling-stroke" d="
  M 85.38 70.77
  A 0.54 0.54 0.0 0 0 84.87 70.05
  L 64.04 70.06
  A 0.54 0.54 0.0 0 0 63.53 70.41
  L 50.91 105.03
  A 0.54 0.54 0.0 0 0 51.42 105.76
  L 72.28 105.75
  A 0.54 0.54 0.0 0 0 72.79 105.39
  L 85.38 70.77"
/>
<path stroke="#efdbd3" vector-effect="non-scaling-stroke" d="
  M 94.96 83.29
  L 102.96 105.35
  Q 103.11 105.76 103.55 105.76
  L 124.49 105.75
  A 0.40 0.40 0.0 0 0 124.87 105.22
  L 113.53 74.13"
/>
<path stroke="#e7d3d5" vector-effect="non-scaling-stroke" d="
  M 113.53 74.13
  L 112.34 70.80
  A 1.06 1.06 0.0 0 0 111.34 70.09
  L 90.95 70.04
  A 0.60 0.60 0.0 0 0 90.39 70.84
  L 94.96 83.29"
/>
<path stroke="#d7aea9" vector-effect="non-scaling-stroke" d="
  M 113.53 74.13
  Q 109.95 75.86 106.37 77.65
  Q 104.18 78.73 101.78 80.34
  Q 99.60 81.81 97.36 83.19
  Q 96.95 83.45 96.80 83.91
  Q 96.69 84.26 96.44 84.54
  Q 96.02 85.00 95.75 84.44
  Q 95.41 83.74 94.96 83.29"
/>
</g>
<path fill="#ffffff" d="
  M 0.00 0.00
  L 133.00 0.00
  L 133.00 133.00
  L 0.00 133.00
  L 0.00 0.00
  Z
  M 12.80 62.74
  A 0.39 0.39 0.0 0 0 13.17 63.26
  L 34.33 63.27
  A 0.39 0.39 0.0 0 0 34.69 63.01
  L 47.45 27.86
  A 0.39 0.39 0.0 0 0 47.08 27.34
  L 25.96 27.30
  A 0.39 0.39 0.0 0 0 25.60 27.56
  L 12.80 62.74
  Z
  M 72.72 27.58
  A 0.41 0.41 0.0 0 0 72.33 27.31
  L 51.25 27.31
  A 0.41 0.41 0.0 0 0 50.86 27.86
  L 63.63 62.99
  A 0.41 0.41 0.0 0 0 64.02 63.26
  L 85.11 63.23
  A 0.41 0.41 0.0 0 0 85.49 62.68
  L 72.72 27.58
  Z
  M 90.24 62.58
  A 0.48 0.48 0.0 0 0 90.69 63.22
  L 111.64 63.26
  A 0.48 0.48 0.0 0 0 112.10 62.94
  L 124.85 27.98
  A 0.48 0.48 0.0 0 0 124.39 27.34
  L 103.43 27.32
  A 0.48 0.48 0.0 0 0 102.97 27.64
  L 90.24 62.58
  Z
  M 34.74 70.30
  A 0.40 0.40 0.0 0 0 34.36 70.04
  L 13.27 70.07
  A 0.40 0.40 0.0 0 0 12.89 70.61
  L 25.57 105.49
  A 0.40 0.40 0.0 0 0 25.95 105.75
  L 47.08 105.75
  A 0.40 0.40 0.0 0 0 47.45 105.21
  L 34.74 70.30
  Z
  M 85.38 70.77
  A 0.54 0.54 0.0 0 0 84.87 70.05
  L 64.04 70.06
  A 0.54 0.54 0.0 0 0 63.53 70.41
  L 50.91 105.03
  A 0.54 0.54 0.0 0 0 51.42 105.76
  L 72.28 105.75
  A 0.54 0.54 0.0 0 0 72.79 105.39
  L 85.38 70.77
  Z
  M 94.96 83.29
  L 102.96 105.35
  Q 103.11 105.76 103.55 105.76
  L 124.49 105.75
  A 0.40 0.40 0.0 0 0 124.87 105.22
  L 113.53 74.13
  L 112.34 70.80
  A 1.06 1.06 0.0 0 0 111.34 70.09
  L 90.95 70.04
  A 0.60 0.60 0.0 0 0 90.39 70.84
  L 94.96 83.29
  Z"
/>
<path fill="#57569e" d="
  M 12.80 62.74
  L 25.60 27.56
  A 0.39 0.39 0.0 0 1 25.96 27.30
  L 47.08 27.34
  A 0.39 0.39 0.0 0 1 47.45 27.86
  L 34.69 63.01
  A 0.39 0.39 0.0 0 1 34.33 63.27
  L 13.17 63.26
  A 0.39 0.39 0.0 0 1 12.80 62.74
  Z"
/>
<path fill="#7164a5" d="
  M 72.72 27.58
  L 85.49 62.68
  A 0.41 0.41 0.0 0 1 85.11 63.23
  L 64.02 63.26
  A 0.41 0.41 0.0 0 1 63.63 62.99
  L 50.86 27.86
  A 0.41 0.41 0.0 0 1 51.25 27.31
  L 72.33 27.31
  A 0.41 0.41 0.0 0 1 72.72 27.58
  Z"
/>
<path fill="#bb95ad" d="
  M 90.24 62.58
  L 102.97 27.64
  A 0.48 0.48 0.0 0 1 103.43 27.32
  L 124.39 27.34
  A 0.48 0.48 0.0 0 1 124.85 27.98
  L 112.10 62.94
  A 0.48 0.48 0.0 0 1 111.64 63.26
  L 90.69 63.22
  A 0.48 0.48 0.0 0 1 90.24 62.58
  Z"
/>
<path fill="#7164a5" d="
  M 34.74 70.30
  L 47.45 105.21
  A 0.40 0.40 0.0 0 1 47.08 105.75
  L 25.95 105.75
  A 0.40 0.40 0.0 0 1 25.57 105.49
  L 12.89 70.61
  A 0.40 0.40 0.0 0 1 13.27 70.07
  L 34.36 70.04
  A 0.40 0.40 0.0 0 1 34.74 70.30
  Z"
/>
<path fill="#9074ad" d="
  M 85.38 70.77
  L 72.79 105.39
  A 0.54 0.54 0.0 0 1 72.28 105.75
  L 51.42 105.76
  A 0.54 0.54 0.0 0 1 50.91 105.03
  L 63.53 70.41
  A 0.54 0.54 0.0 0 1 64.04 70.06
  L 84.87 70.05
  A 0.54 0.54 0.0 0 1 85.38 70.77
  Z"
/>
<path fill="#cea6aa" d="
  M 113.53 74.13
  Q 109.95 75.86 106.37 77.65
  Q 104.18 78.73 101.78 80.34
  Q 99.60 81.81 97.36 83.19
  Q 96.95 83.45 96.80 83.91
  Q 96.69 84.26 96.44 84.54
  Q 96.02 85.00 95.75 84.44
  Q 95.41 83.74 94.96 83.29
  L 90.39 70.84
  A 0.60 0.60 0.0 0 1 90.95 70.04
  L 111.34 70.09
  A 1.06 1.06 0.0 0 1 112.34 70.80
  L 113.53 74.13
  Z"
/>
<path fill="#dfb6a7" d="
  M 113.53 74.13
  L 124.87 105.22
  A 0.40 0.40 0.0 0 1 124.49 105.75
  L 103.55 105.76
  Q 103.11 105.76 102.96 105.35
  L 94.96 83.29
  Q 95.41 83.74 95.75 84.44
  Q 96.02 85.00 96.44 84.54
  Q 96.69 84.26 96.80 83.91
  Q 96.95 83.45 97.36 83.19
  Q 99.60 81.81 101.78 80.34
  Q 104.18 78.73 106.37 77.65
  Q 109.95 75.86 113.53 74.13
  Z"
/>
</svg>
