<?xml version="1.0" encoding="UTF-8" standalone="no"?>
<!DOCTYPE svg PUBLIC "-//W3C//DTD SVG 1.1//EN" "http://www.w3.org/Graphics/SVG/1.1/DTD/svg11.dtd">
<svg xmlns="http://www.w3.org/2000/svg" version="1.1" viewBox="0.00 0.00 133.00 133.00">
<g stroke-width="2.00" fill="none" stroke-linecap="butt">
<path stroke="#7365a6" vector-effect="non-scaling-stroke" d="
  M 41.78 27.23
  Q 34.49 28.15 27.17 27.60
  Q 26.66 27.56 26.27 27.88
  L 24.96 28.92"
/>
<path stroke="#9984a3" vector-effect="non-scaling-stroke" d="
  M 28.09 63.45
  L 14.22 63.18
  Q 14.01 63.18 13.99 63.39
  Q 13.97 63.59 14.03 63.68"
/>
<path stroke="#967da9" vector-effect="non-scaling-stroke" d="
  M 42.81 105.73
  Q 35.08 104.93 27.37 105.76"
/>
</g>
<path fill="#9074ad" d="
  M 41.78 27.23
  Q 34.49 28.15 27.17 27.60
  Q 26.66 27.56 26.27 27.88
  L 24.96 28.92
  Q 24.95 28.10 25.28 27.52
  Q 25.54 27.07 26.06 27.08
  L 41.78 27.23
  Z"
/>
<path fill="#56569e" d="
  M 41.78 27.23
  Q 44.52 27.12 47.16 27.88
  Q 47.67 28.03 47.49 28.53
  L 35.05 62.05
  A 1.33 1.33 0.0 0 1 33.91 62.92
  L 28.09 63.45
  L 14.22 63.18
  Q 14.01 63.18 13.99 63.39
  Q 13.97 63.59 14.03 63.68
  Q 13.61 63.61 13.34 63.44
  Q 12.88 63.13 13.06 62.61
  L 24.96 28.92
  L 26.27 27.88
  Q 26.66 27.56 27.17 27.60
  Q 34.49 28.15 41.78 27.23
  Z"
/>
<path fill="#7264a5" d="
  M 63.17 62.08
  L 51.45 29.76
  A 1.84 1.84 0.0 0 1 53.13 27.29
  L 71.38 26.79
  A 1.84 1.84 0.0 0 1 73.17 28.01
  L 85.01 61.30
  A 1.84 1.84 0.0 0 1 83.23 63.75
  L 64.86 63.29
  A 1.84 1.84 0.0 0 1 63.17 62.08
  Z"
/>
<path fill="#ba95ad" d="
  M 124.72 28.24
  L 112.55 61.67
  Q 112.36 62.18 111.82 62.20
  Q 102.99 62.48 94.26 62.75
  Q 92.48 62.81 91.06 62.35
  A 0.67 0.66 -71.3 0 1 90.64 61.49
  L 102.30 29.27
  A 2.40 2.38 -87.7 0 1 103.90 27.78
  C 109.75 26.11 118.49 26.92 124.48 27.84
  Q 124.85 27.90 124.72 28.24
  Z"
/>
<path fill="#dbb2a8" d="
  M 28.09 63.45
  Q 20.99 64.58 14.03 63.68
  Q 13.97 63.59 13.99 63.39
  Q 14.01 63.18 14.22 63.18
  L 28.09 63.45
  Z"
/>
<path fill="#9074ad" d="
  M 85.66 70.26
  L 72.81 105.44
  A 0.77 0.77 0.0 0 1 72.08 105.96
  C 65.55 106.06 57.96 106.60 51.66 105.01
  Q 51.01 104.85 51.24 104.22
  L 63.36 70.42
  Q 63.50 70.01 63.93 70.01
  L 85.49 70.02
  Q 85.75 70.02 85.66 70.26
  Z"
/>
<path fill="#7264a5" d="
  M 42.81 105.73
  Q 35.08 104.93 27.37 105.76
  Q 26.65 106.25 25.98 105.93
  Q 25.50 105.72 25.23 104.96
  Q 19.04 88.04 13.47 71.91
  Q 12.94 70.36 14.58 70.39
  L 34.52 70.71
  Q 35.08 70.72 35.28 71.25
  L 47.60 105.20
  Q 47.77 105.67 47.28 105.67
  L 42.81 105.73
  Z"
/>
<path fill="#dbb2a8" d="
  M 123.03 100.77
  C 123.34 101.66 124.25 103.27 124.17 104.46
  Q 124.11 105.47 123.10 105.57
  C 117.08 106.16 109.49 106.69 103.91 105.11
  Q 102.95 104.84 102.59 103.86
  L 90.87 72.12
  A 1.44 1.43 -9.4 0 1 92.26 70.19
  L 111.48 70.79
  Q 112.20 70.81 112.46 71.50
  Q 118.26 87.15 123.03 100.77
  Z"
/>
<path fill="#ba95ad" d="
  M 42.81 105.73
  L 27.37 105.76
  Q 35.08 104.93 42.81 105.73
  Z"
/>
</svg>
