<?xml version="1.0" encoding="UTF-8" standalone="no"?>
<!DOCTYPE svg PUBLIC "-//W3C//DTD SVG 1.1//EN" "http://www.w3.org/Graphics/SVG/1.1/DTD/svg11.dtd">
<svg xmlns="http://www.w3.org/2000/svg" version="1.1" viewBox="0.00 0.00 1471.00 285.00">
<g stroke-width="2.00" fill="none" stroke-linecap="butt">
<path stroke="#928f8e" vector-effect="non-scaling-stroke" d="
  M 548.62 61.96
  C 545.18 43.31 531.09 31.86 512.87 28.85
  C 495.43 25.97 471.22 26.27 456.34 36.83
  C 444.42 45.29 440.06 59.28 440.05 73.75
  Q 439.99 138.57 440.01 203.39
  C 440.01 237.18 458.27 251.10 490.50 252.13
  C 512.14 252.82 538.21 248.79 546.35 225.54
  Q 549.51 216.53 549.51 209.50
  Q 549.59 143.30 549.51 77.11
  Q 549.50 66.72 548.62 61.96"
/>
<path stroke="#928f8e" vector-effect="non-scaling-stroke" d="
  M 1271.94 164.24
  Q 1272.13 183.07 1271.96 201.91
  C 1271.87 211.56 1268.93 220.97 1258.75 224.19
  C 1248.50 227.44 1229.93 226.79 1225.06 214.69
  Q 1222.53 208.41 1222.52 203.00
  Q 1222.47 142.21 1222.52 81.41
  C 1222.53 69.53 1224.84 56.93 1239.01 54.75
  C 1256.52 52.07 1272.09 56.23 1272.01 77.01
  Q 1271.96 90.58 1272.02 104.23
  Q 1272.02 104.72 1272.51 104.72
  L 1301.53 104.72
  A 0.50 0.50 0.0 0 0 1302.03 104.23
  Q 1302.10 89.26 1302.01 74.33
  C 1301.89 53.01 1292.40 35.41 1270.50 30.03
  C 1251.77 25.44 1220.65 25.27 1205.32 40.07
  C 1197.00 48.09 1192.55 59.90 1192.54 71.25
  Q 1192.51 138.38 1192.52 205.50
  C 1192.53 231.44 1205.24 247.63 1231.25 251.21
  C 1254.02 254.35 1288.83 252.71 1298.49 226.76
  Q 1301.99 217.35 1302.01 210.00
  Q 1302.09 174.11 1302.03 138.30
  A 0.30 0.30 0.0 0 0 1301.73 138.00
  L 1246.02 138.00
  A 0.24 0.24 0.0 0 0 1245.78 138.24
  L 1245.78 162.92
  A 0.66 0.65 -0.0 0 0 1246.44 163.57
  L 1271.28 163.58
  Q 1271.94 163.58 1271.94 164.24"
/>
<path stroke="#aaaacf" vector-effect="non-scaling-stroke" d="
  M 130.72 28.41
  A 0.33 0.33 0.0 0 0 130.41 27.97
  L 65.30 27.98
  A 0.33 0.33 0.0 0 0 64.99 28.20
  L 26.02 135.32
  A 0.33 0.33 0.0 0 0 26.33 135.76
  L 91.42 135.75
  A 0.33 0.33 0.0 0 0 91.73 135.53
  L 130.72 28.41"
/>
<path stroke="#b3afd1" vector-effect="non-scaling-stroke" d="
  M 150.09 55.64
  L 163.53 92.56"
/>
<path stroke="#bcb4d3" vector-effect="non-scaling-stroke" d="
  M 163.53 92.56
  L 179.14 135.44
  Q 179.25 135.75 179.58 135.75
  L 209.28 135.72"
/>
<path stroke="#cbbcd7" vector-effect="non-scaling-stroke" d="
  M 209.28 135.72
  L 244.53 135.76
  Q 245.04 135.76 244.86 135.28
  L 237.03 113.77"
/>
<path stroke="#bcb4d3" vector-effect="non-scaling-stroke" d="
  M 237.03 113.77
  L 212.10 45.26"
/>
<path stroke="#b3afd1" vector-effect="non-scaling-stroke" d="
  M 212.10 45.26
  L 205.94 28.53
  A 0.78 0.78 0.0 0 0 205.21 28.02
  L 174.22 28.01"
/>
<path stroke="#aaaacf" vector-effect="non-scaling-stroke" d="
  M 174.22 28.01
  L 140.33 27.99
  Q 140.03 27.99 140.13 28.27
  L 150.09 55.64"
/>
<path stroke="#5e5aa0" vector-effect="non-scaling-stroke" d="
  M 174.22 28.01
  Q 173.65 28.62 173.78 29.08
  Q 173.91 29.49 173.83 29.92
  Q 173.75 30.38 173.39 30.39
  Q 172.76 30.41 172.53 31.01
  Q 172.18 31.94 171.89 32.25
  Q 165.59 38.89 159.05 45.30
  Q 158.88 45.47 158.88 45.72
  Q 158.88 45.88 158.86 46.06
  Q 158.83 46.43 158.57 46.69
  L 150.09 55.64"
/>
<path stroke="#7064a5" vector-effect="non-scaling-stroke" d="
  M 212.10 45.26
  Q 211.70 45.36 211.37 45.42
  Q 210.93 45.50 210.67 45.33
  Q 210.43 45.16 210.37 44.83
  Q 210.29 44.34 209.94 44.69
  L 199.31 55.30
  Q 199.13 55.49 199.12 55.74
  Q 199.12 55.91 199.10 56.08
  Q 199.05 56.56 198.70 56.91
  L 164.38 91.25
  Q 164.09 91.54 164.32 91.87
  Q 164.40 91.99 164.38 92.20
  Q 164.35 92.50 164.06 92.43
  Q 163.79 92.38 163.53 92.56"
/>
<path stroke="#8870ab" vector-effect="non-scaling-stroke" d="
  M 237.03 113.77
  Q 235.84 114.06 235.75 112.82
  A 0.40 0.40 0.0 0 0 235.07 112.56
  L 224.17 123.43
  Q 223.87 123.73 223.87 124.16
  L 223.87 126.00
  Q 223.87 126.62 223.25 126.62
  L 221.46 126.62
  Q 220.99 126.62 220.65 126.96
  L 214.21 133.42
  Q 214.09 133.55 214.20 133.67
  Q 214.44 133.95 214.15 134.20
  Q 212.28 135.81 209.28 135.72"
/>
<path stroke="#decbd6" vector-effect="non-scaling-stroke" d="
  M 258.22 135.32
  A 0.32 0.32 0.0 0 0 258.52 135.75
  L 323.63 135.74
  A 0.32 0.32 0.0 0 0 323.93 135.53
  L 362.96 28.41
  A 0.32 0.32 0.0 0 0 362.66 27.98
  L 297.48 27.98
  A 0.32 0.32 0.0 0 0 297.18 28.19
  L 258.22 135.32"
/>
<path stroke="#928f8e" vector-effect="non-scaling-stroke" d="
  M 613.50 222.61
  A 0.50 0.50 0.0 0 1 613.00 222.11
  L 613.00 30.47
  A 0.50 0.50 0.0 0 0 612.50 29.97
  L 583.42 29.98
  A 0.50 0.50 0.0 0 0 582.92 30.48
  L 582.92 249.25
  A 0.50 0.50 0.0 0 0 583.42 249.75
  L 671.54 249.75
  A 0.50 0.50 0.0 0 0 672.04 249.25
  L 672.04 223.10
  A 0.50 0.50 0.0 0 0 671.54 222.60
  L 613.50 222.61"
/>
<path stroke="#928f8e" vector-effect="non-scaling-stroke" d="
  M 725.00 30.45
  A 0.48 0.48 0.0 0 0 724.52 29.97
  L 695.48 29.98
  A 0.48 0.48 0.0 0 0 695.00 30.46
  L 695.00 249.27
  A 0.48 0.48 0.0 0 0 695.48 249.75
  L 724.52 249.75
  A 0.48 0.48 0.0 0 0 725.00 249.27
  L 725.00 30.45"
/>
<path stroke="#928f8e" vector-effect="non-scaling-stroke" d="
  M 791.51 56.48
  L 853.51 56.48
  Q 854.00 56.48 854.00 55.99
  L 854.00 30.49
  A 0.52 0.51 89.4 0 0 853.49 29.98
  L 761.20 29.98
  A 0.38 0.37 -0.0 0 0 760.82 30.35
  L 760.82 249.04
  A 0.72 0.71 -0.0 0 0 761.54 249.75
  L 852.99 249.75
  A 1.74 1.74 0.0 0 0 854.73 248.01
  L 854.73 223.24
  A 0.24 0.24 0.0 0 0 854.49 223.00
  L 791.50 223.00
  A 0.50 0.50 0.0 0 1 791.00 222.50
  L 791.00 152.23
  Q 791.00 151.72 791.52 151.72
  L 843.53 151.72
  A 0.50 0.50 0.0 0 0 844.03 151.22
  L 844.03 125.26
  A 0.39 0.38 0.0 0 0 843.64 124.88
  L 791.37 124.87
  A 0.37 0.37 0.0 0 1 791.00 124.50
  L 791.00 56.99
  Q 791.00 56.48 791.51 56.48"
/>
<path stroke="#928f8e" vector-effect="non-scaling-stroke" d="
  M 910.49 95.77
  Q 910.49 95.03 910.74 95.73
  L 966.24 249.24
  Q 966.42 249.75 966.96 249.75
  L 994.52 249.75
  Q 995.03 249.75 995.03 249.23
  L 995.03 30.50
  Q 995.03 29.97 994.50 29.97
  L 967.53 29.98
  A 0.25 0.24 0.0 0 0 967.28 30.22
  L 967.28 179.26
  A 0.22 0.22 0.0 0 0 967.56 179.47
  Q 968.98 179.02 967.41 179.61
  Q 967.28 179.66 967.23 179.53
  L 912.83 30.55
  A 0.87 0.87 0.0 0 0 912.01 29.98
  L 883.26 29.97
  Q 882.73 29.97 882.73 30.50
  L 882.73 248.87
  A 0.89 0.88 0.0 0 0 883.62 249.75
  L 909.25 249.75
  A 1.25 1.24 90.0 0 0 910.49 248.50
  L 910.49 95.77"
/>
<path stroke="#928f8e" vector-effect="non-scaling-stroke" d="
  M 1053.76 56.48
  A 0.66 0.66 0.0 0 1 1054.42 57.14
  L 1054.42 249.09
  A 0.66 0.66 0.0 0 0 1055.08 249.75
  L 1083.67 249.75
  A 0.66 0.66 0.0 0 0 1084.33 249.09
  L 1084.32 57.14
  A 0.66 0.66 0.0 0 1 1084.98 56.48
  L 1121.88 56.48
  A 0.66 0.66 0.0 0 0 1122.54 55.82
  L 1122.54 30.64
  A 0.66 0.66 0.0 0 0 1121.88 29.98
  L 1016.66 29.98
  A 0.66 0.66 0.0 0 0 1016.00 30.64
  L 1016.00 55.82
  A 0.66 0.66 0.0 0 0 1016.66 56.48
  L 1053.76 56.48"
/>
<path stroke="#928f8e" vector-effect="non-scaling-stroke" d="
  M 1383.64 108.04
  Q 1383.26 109.20 1382.86 108.05
  L 1356.16 30.63
  A 0.98 0.97 80.3 0 0 1355.24 29.97
  L 1324.82 29.98
  A 0.34 0.34 0.0 0 0 1324.50 30.44
  L 1365.56 136.52
  A 1.37 1.32 -45.4 0 1 1365.55 137.53
  L 1321.27 248.71
  Q 1320.86 249.75 1321.97 249.75
  L 1351.51 249.75
  A 0.46 0.46 0.0 0 0 1351.94 249.45
  L 1381.68 165.20
  A 0.30 0.29 -73.2 0 1 1382.02 165.01
  Q 1382.28 165.06 1382.38 165.33
  Q 1397.89 207.23 1413.27 249.22
  Q 1413.47 249.75 1414.02 249.75
  L 1443.33 249.75
  A 0.98 0.97 -10.7 0 0 1444.24 248.42
  L 1400.70 137.88
  Q 1400.49 137.35 1400.69 136.83
  L 1439.95 30.25
  A 0.21 0.20 -79.9 0 0 1439.76 29.97
  L 1409.80 29.98
  Q 1409.41 29.98 1409.29 30.35
  L 1383.64 108.04"
/>
<path stroke="#aaaacf" vector-effect="non-scaling-stroke" d="
  M 63.47 156.23
  L 26.52 156.20
  A 0.27 0.26 80.2 0 0 26.27 156.56
  L 35.16 180.98"
/>
<path stroke="#b3afd1" vector-effect="non-scaling-stroke" d="
  M 35.16 180.98
  L 48.43 217.38"
/>
<path stroke="#bcb4d3" vector-effect="non-scaling-stroke" d="
  M 48.43 217.38
  L 64.92 262.71
  Q 65.10 263.21 65.64 263.21
  L 77.54 263.22"
/>
<path stroke="#cbbcd7" vector-effect="non-scaling-stroke" d="
  M 77.54 263.22
  L 130.23 263.23
  Q 130.82 263.23 130.62 262.69
  L 117.94 227.78"
/>
<path stroke="#bcb4d3" vector-effect="non-scaling-stroke" d="
  M 117.94 227.78
  L 95.84 167.03"
/>
<path stroke="#b3afd1" vector-effect="non-scaling-stroke" d="
  M 95.84 167.03
  L 92.01 156.69
  Q 91.83 156.19 91.30 156.20
  L 63.47 156.23"
/>
<path stroke="#7064a5" vector-effect="non-scaling-stroke" d="
  M 95.84 167.03
  Q 96.05 168.18 95.52 168.36
  A 0.40 0.36 47.7 0 1 95.20 168.33
  L 94.74 168.09
  Q 94.60 168.01 94.48 168.13
  L 80.30 182.32
  Q 80.13 182.49 80.12 182.75
  Q 80.12 182.93 80.10 183.10
  Q 80.04 183.59 79.69 183.93
  Q 64.40 199.21 49.12 214.50
  Q 48.37 215.25 48.43 217.38"
/>
<path stroke="#5e5aa0" vector-effect="non-scaling-stroke" d="
  M 35.16 180.98
  Q 35.60 179.89 36.20 179.71
  Q 36.52 179.62 36.75 179.37
  C 37.45 178.64 38.43 177.96 39.01 177.37
  Q 47.11 169.23 55.25 161.13
  C 56.71 159.68 57.35 157.56 59.48 156.92
  Q 61.38 156.35 63.47 156.23"
/>
<path stroke="#8870ab" vector-effect="non-scaling-stroke" d="
  M 117.94 227.78
  Q 117.40 227.98 117.01 227.86
  Q 116.49 227.69 116.58 227.14
  Q 116.73 226.18 116.05 225.63
  Q 115.63 225.28 115.63 224.74
  L 115.63 223.75
  A 0.39 0.38 9.7 0 0 115.37 223.39
  L 114.91 223.22
  Q 114.53 223.09 114.25 223.37
  L 102.30 235.32
  Q 102.12 235.50 102.12 235.76
  L 102.12 236.06
  Q 102.12 236.49 101.82 236.80
  L 77.31 261.32
  A 0.62 0.62 0.0 0 0 77.68 262.37
  Q 77.96 262.41 78.11 262.60
  Q 78.37 262.94 77.97 263.07
  L 77.54 263.22"
/>
<path stroke="#cbbcd7" vector-effect="non-scaling-stroke" d="
  M 140.17 262.80
  A 0.34 0.34 0.0 0 0 140.49 263.26
  L 205.58 263.25
  A 0.34 0.34 0.0 0 0 205.90 263.03
  L 244.63 156.63
  A 0.34 0.34 0.0 0 0 244.31 156.17
  L 179.22 156.16
  A 0.34 0.34 0.0 0 0 178.90 156.38
  L 140.17 262.80"
/>
<path stroke="#e8d4d5" vector-effect="non-scaling-stroke" d="
  M 266.26 177.99
  L 287.63 236.70"
/>
<path stroke="#f3ded3" vector-effect="non-scaling-stroke" d="
  M 287.63 236.70
  L 297.13 262.81
  Q 297.29 263.26 297.77 263.26
  L 362.72 263.26
  Q 363.10 263.26 362.97 262.91
  L 341.88 205.00"
/>
<path stroke="#e8d4d5" vector-effect="non-scaling-stroke" d="
  M 341.88 205.00
  L 324.31 156.77
  Q 324.12 156.26 323.57 156.26
  L 299.20 156.23"
/>
<path stroke="#decbd6" vector-effect="non-scaling-stroke" d="
  M 299.20 156.23
  L 258.83 156.21
  A 0.36 0.35 79.7 0 0 258.50 156.69
  L 266.26 177.99"
/>
<path stroke="#c7a0ac" vector-effect="non-scaling-stroke" d="
  M 299.20 156.23
  Q 299.32 156.80 299.82 156.88
  Q 300.05 156.92 299.89 157.09
  Q 299.71 157.27 299.64 157.49
  Q 299.50 157.96 299.01 157.88
  Q 298.16 157.74 297.88 158.53
  Q 297.71 159.01 297.21 158.89
  Q 296.39 158.70 295.96 159.31
  Q 295.69 159.67 295.26 159.79
  Q 293.73 160.21 292.86 161.58
  Q 292.61 161.97 292.15 161.88
  Q 291.33 161.72 290.91 162.37
  Q 290.68 162.73 290.26 162.81
  Q 288.73 163.11 287.90 164.59
  Q 287.68 164.99 287.23 164.89
  Q 286.22 164.67 285.87 165.54
  Q 285.69 166.00 285.20 165.89
  Q 284.39 165.71 283.95 166.31
  Q 283.69 166.67 283.25 166.79
  Q 281.73 167.21 280.86 168.58
  Q 280.61 168.97 280.15 168.88
  Q 279.33 168.72 278.91 169.37
  Q 278.68 169.73 278.26 169.81
  Q 276.73 170.11 275.90 171.59
  Q 275.68 171.99 275.23 171.89
  Q 274.22 171.67 273.87 172.54
  Q 273.69 173.00 273.20 172.89
  Q 272.39 172.71 271.95 173.31
  Q 271.69 173.67 271.25 173.79
  Q 269.74 174.21 268.86 175.57
  Q 268.62 175.95 268.17 175.87
  Q 267.63 175.78 267.21 176.05
  Q 266.78 176.33 266.87 176.84
  Q 267.05 177.85 266.26 177.99"
/>
<path stroke="#dcb3a8" vector-effect="non-scaling-stroke" d="
  M 341.88 205.00
  Q 341.46 205.56 340.79 205.05
  Q 340.34 204.71 340.08 205.21
  Q 339.71 205.95 338.91 205.90
  Q 338.51 205.87 338.23 206.15
  L 336.87 207.47
  Q 336.45 207.88 335.87 207.86
  Q 335.23 207.83 334.91 208.39
  Q 334.71 208.74 334.32 208.81
  Q 332.74 209.08 331.90 210.58
  Q 331.67 210.98 331.22 210.89
  Q 330.22 210.67 329.88 211.53
  Q 329.69 211.98 329.22 211.88
  Q 328.39 211.71 327.87 212.38
  Q 327.56 212.77 327.07 212.86
  Q 325.59 213.13 324.89 214.54
  Q 324.69 214.96 324.23 214.88
  Q 323.20 214.71 322.69 215.63
  Q 322.55 215.88 322.26 215.88
  L 321.78 215.88
  A 0.68 0.67 -67.2 0 0 321.30 216.08
  L 319.82 217.52
  Q 319.44 217.89 318.91 217.86
  Q 318.30 217.82 317.96 218.29
  Q 317.66 218.69 317.17 218.82
  Q 315.84 219.17 315.01 220.39
  Q 314.71 220.83 314.18 220.89
  Q 312.06 221.12 310.77 222.64
  Q 310.57 222.88 310.25 222.88
  L 309.78 222.88
  A 0.68 0.67 -67.2 0 0 309.30 223.08
  L 307.82 224.52
  Q 307.44 224.89 306.90 224.86
  Q 306.24 224.82 305.91 225.39
  Q 305.71 225.74 305.32 225.81
  Q 303.74 226.08 302.90 227.58
  Q 302.67 227.98 302.22 227.89
  Q 301.21 227.67 300.87 228.54
  Q 300.69 229.01 300.20 228.89
  Q 299.39 228.71 298.95 229.31
  Q 298.68 229.68 298.25 229.80
  Q 296.73 230.21 295.86 231.58
  Q 295.61 231.98 295.15 231.88
  Q 294.38 231.73 293.96 232.31
  Q 293.69 232.67 293.26 232.79
  Q 291.70 233.23 290.81 234.63
  Q 290.75 234.73 290.25 234.88
  Q 290.09 234.92 290.01 234.77
  Q 289.81 234.38 289.50 234.70
  L 287.63 236.70"
/>
<path stroke="#928f8e" vector-effect="non-scaling-stroke" d="
  M 516.70 64.38
  C 511.67 53.67 496.86 52.71 486.76 54.72
  C 479.22 56.22 474.81 59.34 471.94 66.65
  Q 470.03 71.49 470.03 76.25
  Q 469.97 139.25 470.14 202.25
  C 470.20 222.60 484.88 228.28 502.53 225.06
  C 514.25 222.93 519.55 214.21 519.60 202.75
  Q 519.70 175.61 519.82 78.50
  Q 519.83 71.05 516.70 64.38"
/>
</g>
<path fill="#ffffff" d="
  M 0.00 0.00
  L 1471.00 0.00
  L 1471.00 285.00
  L 0.00 285.00
  L 0.00 0.00
  Z
  M 548.62 61.96
  C 545.18 43.31 531.09 31.86 512.87 28.85
  C 495.43 25.97 471.22 26.27 456.34 36.83
  C 444.42 45.29 440.06 59.28 440.05 73.75
  Q 439.99 138.57 440.01 203.39
  C 440.01 237.18 458.27 251.10 490.50 252.13
  C 512.14 252.82 538.21 248.79 546.35 225.54
  Q 549.51 216.53 549.51 209.50
  Q 549.59 143.30 549.51 77.11
  Q 549.50 66.72 548.62 61.96
  Z
  M 1271.94 164.24
  Q 1272.13 183.07 1271.96 201.91
  C 1271.87 211.56 1268.93 220.97 1258.75 224.19
  C 1248.50 227.44 1229.93 226.79 1225.06 214.69
  Q 1222.53 208.41 1222.52 203.00
  Q 1222.47 142.21 1222.52 81.41
  C 1222.53 69.53 1224.84 56.93 1239.01 54.75
  C 1256.52 52.07 1272.09 56.23 1272.01 77.01
  Q 1271.96 90.58 1272.02 104.23
  Q 1272.02 104.72 1272.51 104.72
  L 1301.53 104.72
  A 0.50 0.50 0.0 0 0 1302.03 104.23
  Q 1302.10 89.26 1302.01 74.33
  C 1301.89 53.01 1292.40 35.41 1270.50 30.03
  C 1251.77 25.44 1220.65 25.27 1205.32 40.07
  C 1197.00 48.09 1192.55 59.90 1192.54 71.25
  Q 1192.51 138.38 1192.52 205.50
  C 1192.53 231.44 1205.24 247.63 1231.25 251.21
  C 1254.02 254.35 1288.83 252.71 1298.49 226.76
  Q 1301.99 217.35 1302.01 210.00
  Q 1302.09 174.11 1302.03 138.30
  A 0.30 0.30 0.0 0 0 1301.73 138.00
  L 1246.02 138.00
  A 0.24 0.24 0.0 0 0 1245.78 138.24
  L 1245.78 162.92
  A 0.66 0.65 -0.0 0 0 1246.44 163.57
  L 1271.28 163.58
  Q 1271.94 163.58 1271.94 164.24
  Z
  M 130.72 28.41
  A 0.33 0.33 0.0 0 0 130.41 27.97
  L 65.30 27.98
  A 0.33 0.33 0.0 0 0 64.99 28.20
  L 26.02 135.32
  A 0.33 0.33 0.0 0 0 26.33 135.76
  L 91.42 135.75
  A 0.33 0.33 0.0 0 0 91.73 135.53
  L 130.72 28.41
  Z
  M 150.09 55.64
  L 163.53 92.56
  L 179.14 135.44
  Q 179.25 135.75 179.58 135.75
  L 209.28 135.72
  L 244.53 135.76
  Q 245.04 135.76 244.86 135.28
  L 237.03 113.77
  L 212.10 45.26
  L 205.94 28.53
  A 0.78 0.78 0.0 0 0 205.21 28.02
  L 174.22 28.01
  L 140.33 27.99
  Q 140.03 27.99 140.13 28.27
  L 150.09 55.64
  Z
  M 258.22 135.32
  A 0.32 0.32 0.0 0 0 258.52 135.75
  L 323.63 135.74
  A 0.32 0.32 0.0 0 0 323.93 135.53
  L 362.96 28.41
  A 0.32 0.32 0.0 0 0 362.66 27.98
  L 297.48 27.98
  A 0.32 0.32 0.0 0 0 297.18 28.19
  L 258.22 135.32
  Z
  M 613.50 222.61
  A 0.50 0.50 0.0 0 1 613.00 222.11
  L 613.00 30.47
  A 0.50 0.50 0.0 0 0 612.50 29.97
  L 583.42 29.98
  A 0.50 0.50 0.0 0 0 582.92 30.48
  L 582.92 249.25
  A 0.50 0.50 0.0 0 0 583.42 249.75
  L 671.54 249.75
  A 0.50 0.50 0.0 0 0 672.04 249.25
  L 672.04 223.10
  A 0.50 0.50 0.0 0 0 671.54 222.60
  L 613.50 222.61
  Z
  M 725.00 30.45
  A 0.48 0.48 0.0 0 0 724.52 29.97
  L 695.48 29.98
  A 0.48 0.48 0.0 0 0 695.00 30.46
  L 695.00 249.27
  A 0.48 0.48 0.0 0 0 695.48 249.75
  L 724.52 249.75
  A 0.48 0.48 0.0 0 0 725.00 249.27
  L 725.00 30.45
  Z
  M 791.51 56.48
  L 853.51 56.48
  Q 854.00 56.48 854.00 55.99
  L 854.00 30.49
  A 0.52 0.51 89.4 0 0 853.49 29.98
  L 761.20 29.98
  A 0.38 0.37 -0.0 0 0 760.82 30.35
  L 760.82 249.04
  A 0.72 0.71 -0.0 0 0 761.54 249.75
  L 852.99 249.75
  A 1.74 1.74 0.0 0 0 854.73 248.01
  L 854.73 223.24
  A 0.24 0.24 0.0 0 0 854.49 223.00
  L 791.50 223.00
  A 0.50 0.50 0.0 0 1 791.00 222.50
  L 791.00 152.23
  Q 791.00 151.72 791.52 151.72
  L 843.53 151.72
  A 0.50 0.50 0.0 0 0 844.03 151.22
  L 844.03 125.26
  A 0.39 0.38 0.0 0 0 843.64 124.88
  L 791.37 124.87
  A 0.37 0.37 0.0 0 1 791.00 124.50
  L 791.00 56.99
  Q 791.00 56.48 791.51 56.48
  Z
  M 910.49 95.77
  Q 910.49 95.03 910.74 95.73
  L 966.24 249.24
  Q 966.42 249.75 966.96 249.75
  L 994.52 249.75
  Q 995.03 249.75 995.03 249.23
  L 995.03 30.50
  Q 995.03 29.97 994.50 29.97
  L 967.53 29.98
  A 0.25 0.24 0.0 0 0 967.28 30.22
  L 967.28 179.26
  A 0.22 0.22 0.0 0 0 967.56 179.47
  Q 968.98 179.02 967.41 179.61
  Q 967.28 179.66 967.23 179.53
  L 912.83 30.55
  A 0.87 0.87 0.0 0 0 912.01 29.98
  L 883.26 29.97
  Q 882.73 29.97 882.73 30.50
  L 882.73 248.87
  A 0.89 0.88 0.0 0 0 883.62 249.75
  L 909.25 249.75
  A 1.25 1.24 90.0 0 0 910.49 248.50
  L 910.49 95.77
  Z
  M 1053.76 56.48
  A 0.66 0.66 0.0 0 1 1054.42 57.14
  L 1054.42 249.09
  A 0.66 0.66 0.0 0 0 1055.08 249.75
  L 1083.67 249.75
  A 0.66 0.66 0.0 0 0 1084.33 249.09
  L 1084.32 57.14
  A 0.66 0.66 0.0 0 1 1084.98 56.48
  L 1121.88 56.48
  A 0.66 0.66 0.0 0 0 1122.54 55.82
  L 1122.54 30.64
  A 0.66 0.66 0.0 0 0 1121.88 29.98
  L 1016.66 29.98
  A 0.66 0.66 0.0 0 0 1016.00 30.64
  L 1016.00 55.82
  A 0.66 0.66 0.0 0 0 1016.66 56.48
  L 1053.76 56.48
  Z
  M 1383.64 108.04
  Q 1383.26 109.20 1382.86 108.05
  L 1356.16 30.63
  A 0.98 0.97 80.3 0 0 1355.24 29.97
  L 1324.82 29.98
  A 0.34 0.34 0.0 0 0 1324.50 30.44
  L 1365.56 136.52
  A 1.37 1.32 -45.4 0 1 1365.55 137.53
  L 1321.27 248.71
  Q 1320.86 249.75 1321.97 249.75
  L 1351.51 249.75
  A 0.46 0.46 0.0 0 0 1351.94 249.45
  L 1381.68 165.20
  A 0.30 0.29 -73.2 0 1 1382.02 165.01
  Q 1382.28 165.06 1382.38 165.33
  Q 1397.89 207.23 1413.27 249.22
  Q 1413.47 249.75 1414.02 249.75
  L 1443.33 249.75
  A 0.98 0.97 -10.7 0 0 1444.24 248.42
  L 1400.70 137.88
  Q 1400.49 137.35 1400.69 136.83
  L 1439.95 30.25
  A 0.21 0.20 -79.9 0 0 1439.76 29.97
  L 1409.80 29.98
  Q 1409.41 29.98 1409.29 30.35
  L 1383.64 108.04
  Z
  M 63.47 156.23
  L 26.52 156.20
  A 0.27 0.26 80.2 0 0 26.27 156.56
  L 35.16 180.98
  L 48.43 217.38
  L 64.92 262.71
  Q 65.10 263.21 65.64 263.21
  L 77.54 263.22
  L 130.23 263.23
  Q 130.82 263.23 130.62 262.69
  L 117.94 227.78
  L 95.84 167.03
  L 92.01 156.69
  Q 91.83 156.19 91.30 156.20
  L 63.47 156.23
  Z
  M 140.17 262.80
  A 0.34 0.34 0.0 0 0 140.49 263.26
  L 205.58 263.25
  A 0.34 0.34 0.0 0 0 205.90 263.03
  L 244.63 156.63
  A 0.34 0.34 0.0 0 0 244.31 156.17
  L 179.22 156.16
  A 0.34 0.34 0.0 0 0 178.90 156.38
  L 140.17 262.80
  Z
  M 266.26 177.99
  L 287.63 236.70
  L 297.13 262.81
  Q 297.29 263.26 297.77 263.26
  L 362.72 263.26
  Q 363.10 263.26 362.97 262.91
  L 341.88 205.00
  L 324.31 156.77
  Q 324.12 156.26 323.57 156.26
  L 299.20 156.23
  L 258.83 156.21
  A 0.36 0.35 79.7 0 0 258.50 156.69
  L 266.26 177.99
  Z"
/>
<path fill="#251e1c" d="
  M 512.87 28.85
  C 531.09 31.86 545.18 43.31 548.62 61.96
  Q 549.50 66.72 549.51 77.11
  Q 549.59 143.30 549.51 209.50
  Q 549.51 216.53 546.35 225.54
  C 538.21 248.79 512.14 252.82 490.50 252.13
  C 458.27 251.10 440.01 237.18 440.01 203.39
  Q 439.99 138.57 440.05 73.75
  C 440.06 59.28 444.42 45.29 456.34 36.83
  C 471.22 26.27 495.43 25.97 512.87 28.85
  Z
  M 516.70 64.38
  C 511.67 53.67 496.86 52.71 486.76 54.72
  C 479.22 56.22 474.81 59.34 471.94 66.65
  Q 470.03 71.49 470.03 76.25
  Q 469.97 139.25 470.14 202.25
  C 470.20 222.60 484.88 228.28 502.53 225.06
  C 514.25 222.93 519.55 214.21 519.60 202.75
  Q 519.70 175.61 519.82 78.50
  Q 519.83 71.05 516.70 64.38
  Z"
/>
<path fill="#251e1c" d="
  M 1271.28 163.58
  L 1246.44 163.57
  A 0.66 0.65 0.0 0 1 1245.78 162.92
  L 1245.78 138.24
  A 0.24 0.24 0.0 0 1 1246.02 138.00
  L 1301.73 138.00
  A 0.30 0.30 0.0 0 1 1302.03 138.30
  Q 1302.09 174.11 1302.01 210.00
  Q 1301.99 217.35 1298.49 226.76
  C 1288.83 252.71 1254.02 254.35 1231.25 251.21
  C 1205.24 247.63 1192.53 231.44 1192.52 205.50
  Q 1192.51 138.38 1192.54 71.25
  C 1192.55 59.90 1197.00 48.09 1205.32 40.07
  C 1220.65 25.27 1251.77 25.44 1270.50 30.03
  C 1292.40 35.41 1301.89 53.01 1302.01 74.33
  Q 1302.10 89.26 1302.03 104.23
  A 0.50 0.50 0.0 0 1 1301.53 104.72
  L 1272.51 104.72
  Q 1272.02 104.72 1272.02 104.23
  Q 1271.96 90.58 1272.01 77.01
  C 1272.09 56.23 1256.52 52.07 1239.01 54.75
  C 1224.84 56.93 1222.53 69.53 1222.52 81.41
  Q 1222.47 142.21 1222.52 203.00
  Q 1222.53 208.41 1225.06 214.69
  C 1229.93 226.79 1248.50 227.44 1258.75 224.19
  C 1268.93 220.97 1271.87 211.56 1271.96 201.91
  Q 1272.13 183.07 1271.94 164.24
  Q 1271.94 163.58 1271.28 163.58
  Z"
/>
<path fill="#55559e" d="
  M 130.72 28.41
  L 91.73 135.53
  A 0.33 0.33 0.0 0 1 91.42 135.75
  L 26.33 135.76
  A 0.33 0.33 0.0 0 1 26.02 135.32
  L 64.99 28.20
  A 0.33 0.33 0.0 0 1 65.30 27.98
  L 130.41 27.97
  A 0.33 0.33 0.0 0 1 130.72 28.41
  Z"
/>
<path fill="#55559e" d="
  M 174.22 28.01
  Q 173.65 28.62 173.78 29.08
  Q 173.91 29.49 173.83 29.92
  Q 173.75 30.38 173.39 30.39
  Q 172.76 30.41 172.53 31.01
  Q 172.18 31.94 171.89 32.25
  Q 165.59 38.89 159.05 45.30
  Q 158.88 45.47 158.88 45.72
  Q 158.88 45.88 158.86 46.06
  Q 158.83 46.43 158.57 46.69
  L 150.09 55.64
  L 140.13 28.27
  Q 140.03 27.99 140.33 27.99
  L 174.22 28.01
  Z"
/>
<path fill="#675fa2" d="
  M 174.22 28.01
  L 205.21 28.02
  A 0.78 0.78 0.0 0 1 205.94 28.53
  L 212.10 45.26
  Q 211.70 45.36 211.37 45.42
  Q 210.93 45.50 210.67 45.33
  Q 210.43 45.16 210.37 44.83
  Q 210.29 44.34 209.94 44.69
  L 199.31 55.30
  Q 199.13 55.49 199.12 55.74
  Q 199.12 55.91 199.10 56.08
  Q 199.05 56.56 198.70 56.91
  L 164.38 91.25
  Q 164.09 91.54 164.32 91.87
  Q 164.40 91.99 164.38 92.20
  Q 164.35 92.50 164.06 92.43
  Q 163.79 92.38 163.53 92.56
  L 150.09 55.64
  L 158.57 46.69
  Q 158.83 46.43 158.86 46.06
  Q 158.88 45.88 158.88 45.72
  Q 158.88 45.47 159.05 45.30
  Q 165.59 38.89 171.89 32.25
  Q 172.18 31.94 172.53 31.01
  Q 172.76 30.41 173.39 30.39
  Q 173.75 30.38 173.83 29.92
  Q 173.91 29.49 173.78 29.08
  Q 173.65 28.62 174.22 28.01
  Z"
/>
<path fill="#bd97ad" d="
  M 258.22 135.32
  L 297.18 28.19
  A 0.32 0.32 0.0 0 1 297.48 27.98
  L 362.66 27.98
  A 0.32 0.32 0.0 0 1 362.96 28.41
  L 323.93 135.53
  A 0.32 0.32 0.0 0 1 323.63 135.74
  L 258.52 135.75
  A 0.32 0.32 0.0 0 1 258.22 135.32
  Z"
/>
<path fill="#251e1c" d="
  M 613.50 222.61
  L 671.54 222.60
  A 0.50 0.50 0.0 0 1 672.04 223.10
  L 672.04 249.25
  A 0.50 0.50 0.0 0 1 671.54 249.75
  L 583.42 249.75
  A 0.50 0.50 0.0 0 1 582.92 249.25
  L 582.92 30.48
  A 0.50 0.50 0.0 0 1 583.42 29.98
  L 612.50 29.97
  A 0.50 0.50 0.0 0 1 613.00 30.47
  L 613.00 222.11
  A 0.50 0.50 0.0 0 0 613.50 222.61
  Z"
/>
<path fill="#251e1c" d="
  M 725.00 30.45
  L 725.00 249.27
  A 0.48 0.48 0.0 0 1 724.52 249.75
  L 695.48 249.75
  A 0.48 0.48 0.0 0 1 695.00 249.27
  L 695.00 30.46
  A 0.48 0.48 0.0 0 1 695.48 29.98
  L 724.52 29.97
  A 0.48 0.48 0.0 0 1 725.00 30.45
  Z"
/>
<path fill="#251e1c" d="
  M 791.00 56.99
  L 791.00 124.50
  A 0.37 0.37 0.0 0 0 791.37 124.87
  L 843.64 124.88
  A 0.39 0.38 -0.0 0 1 844.03 125.26
  L 844.03 151.22
  A 0.50 0.50 0.0 0 1 843.53 151.72
  L 791.52 151.72
  Q 791.00 151.72 791.00 152.23
  L 791.00 222.50
  A 0.50 0.50 0.0 0 0 791.50 223.00
  L 854.49 223.00
  A 0.24 0.24 0.0 0 1 854.73 223.24
  L 854.73 248.01
  A 1.74 1.74 0.0 0 1 852.99 249.75
  L 761.54 249.75
  A 0.72 0.71 0.0 0 1 760.82 249.04
  L 760.82 30.35
  A 0.38 0.37 -0.0 0 1 761.20 29.98
  L 853.49 29.98
  A 0.52 0.51 89.4 0 1 854.00 30.49
  L 854.00 55.99
  Q 854.00 56.48 853.51 56.48
  L 791.51 56.48
  Q 791.00 56.48 791.00 56.99
  Z"
/>
<path fill="#251e1c" d="
  M 910.49 95.77
  L 910.49 248.50
  A 1.25 1.24 -90.0 0 1 909.25 249.75
  L 883.62 249.75
  A 0.89 0.88 -0.0 0 1 882.73 248.87
  L 882.73 30.50
  Q 882.73 29.97 883.26 29.97
  L 912.01 29.98
  A 0.87 0.87 0.0 0 1 912.83 30.55
  L 967.23 179.53
  Q 967.28 179.66 967.41 179.61
  Q 968.98 179.02 967.56 179.47
  A 0.22 0.22 0.0 0 1 967.28 179.26
  L 967.28 30.22
  A 0.25 0.24 -0.0 0 1 967.53 29.98
  L 994.50 29.97
  Q 995.03 29.97 995.03 30.50
  L 995.03 249.23
  Q 995.03 249.75 994.52 249.75
  L 966.96 249.75
  Q 966.42 249.75 966.24 249.24
  L 910.74 95.73
  Q 910.49 95.03 910.49 95.77
  Z"
/>
<path fill="#251e1c" d="
  M 1053.76 56.48
  L 1016.66 56.48
  A 0.66 0.66 0.0 0 1 1016.00 55.82
  L 1016.00 30.64
  A 0.66 0.66 0.0 0 1 1016.66 29.98
  L 1121.88 29.98
  A 0.66 0.66 0.0 0 1 1122.54 30.64
  L 1122.54 55.82
  A 0.66 0.66 0.0 0 1 1121.88 56.48
  L 1084.98 56.48
  A 0.66 0.66 0.0 0 0 1084.32 57.14
  L 1084.33 249.09
  A 0.66 0.66 0.0 0 1 1083.67 249.75
  L 1055.08 249.75
  A 0.66 0.66 0.0 0 1 1054.42 249.09
  L 1054.42 57.14
  A 0.66 0.66 0.0 0 0 1053.76 56.48
  Z"
/>
<path fill="#251e1c" d="
  M 1383.64 108.04
  L 1409.29 30.35
  Q 1409.41 29.98 1409.80 29.98
  L 1439.76 29.97
  A 0.21 0.20 -79.9 0 1 1439.95 30.25
  L 1400.69 136.83
  Q 1400.49 137.35 1400.70 137.88
  L 1444.24 248.42
  A 0.98 0.97 -10.7 0 1 1443.33 249.75
  L 1414.02 249.75
  Q 1413.47 249.75 1413.27 249.22
  Q 1397.89 207.23 1382.38 165.33
  Q 1382.28 165.06 1382.02 165.01
  A 0.30 0.29 -73.2 0 0 1381.68 165.20
  L 1351.94 249.45
  A 0.46 0.46 0.0 0 1 1351.51 249.75
  L 1321.97 249.75
  Q 1320.86 249.75 1321.27 248.71
  L 1365.55 137.53
  A 1.37 1.32 -45.4 0 0 1365.56 136.52
  L 1324.50 30.44
  A 0.34 0.34 0.0 0 1 1324.82 29.98
  L 1355.24 29.97
  A 0.98 0.97 80.3 0 1 1356.16 30.63
  L 1382.86 108.05
  Q 1383.26 109.20 1383.64 108.04
  Z"
/>
<path fill="#7968a7" d="
  M 212.10 45.26
  L 237.03 113.77
  Q 235.84 114.06 235.75 112.82
  A 0.40 0.40 0.0 0 0 235.07 112.56
  L 224.17 123.43
  Q 223.87 123.73 223.87 124.16
  L 223.87 126.00
  Q 223.87 126.62 223.25 126.62
  L 221.46 126.62
  Q 220.99 126.62 220.65 126.96
  L 214.21 133.42
  Q 214.09 133.55 214.20 133.67
  Q 214.44 133.95 214.15 134.20
  Q 212.28 135.81 209.28 135.72
  L 179.58 135.75
  Q 179.25 135.75 179.14 135.44
  L 163.53 92.56
  Q 163.79 92.38 164.06 92.43
  Q 164.35 92.50 164.38 92.20
  Q 164.40 91.99 164.32 91.87
  Q 164.09 91.54 164.38 91.25
  L 198.70 56.91
  Q 199.05 56.56 199.10 56.08
  Q 199.12 55.91 199.12 55.74
  Q 199.13 55.49 199.31 55.30
  L 209.94 44.69
  Q 210.29 44.34 210.37 44.83
  Q 210.43 45.16 210.67 45.33
  Q 210.93 45.50 211.37 45.42
  Q 211.70 45.36 212.10 45.26
  Z"
/>
<path fill="#ffffff" d="
  M 516.70 64.38
  Q 519.83 71.05 519.82 78.50
  Q 519.70 175.61 519.60 202.75
  C 519.55 214.21 514.25 222.93 502.53 225.06
  C 484.88 228.28 470.20 222.60 470.14 202.25
  Q 469.97 139.25 470.03 76.25
  Q 470.03 71.49 471.94 66.65
  C 474.81 59.34 479.22 56.22 486.76 54.72
  C 496.86 52.71 511.67 53.67 516.70 64.38
  Z"
/>
<path fill="#9778af" d="
  M 237.03 113.77
  L 244.86 135.28
  Q 245.04 135.76 244.53 135.76
  L 209.28 135.72
  Q 212.28 135.81 214.15 134.20
  Q 214.44 133.95 214.20 133.67
  Q 214.09 133.55 214.21 133.42
  L 220.65 126.96
  Q 220.99 126.62 221.46 126.62
  L 223.25 126.62
  Q 223.87 126.62 223.87 126.00
  L 223.87 124.16
  Q 223.87 123.73 224.17 123.43
  L 235.07 112.56
  A 0.40 0.40 0.0 0 1 235.75 112.82
  Q 235.84 114.06 237.03 113.77
  Z"
/>
<path fill="#675fa2" d="
  M 95.84 167.03
  Q 96.05 168.18 95.52 168.36
  A 0.40 0.36 47.7 0 1 95.20 168.33
  L 94.74 168.09
  Q 94.60 168.01 94.48 168.13
  L 80.30 182.32
  Q 80.13 182.49 80.12 182.75
  Q 80.12 182.93 80.10 183.10
  Q 80.04 183.59 79.69 183.93
  Q 64.40 199.21 49.12 214.50
  Q 48.37 215.25 48.43 217.38
  L 35.16 180.98
  Q 35.60 179.89 36.20 179.71
  Q 36.52 179.62 36.75 179.37
  C 37.45 178.64 38.43 177.96 39.01 177.37
  Q 47.11 169.23 55.25 161.13
  C 56.71 159.68 57.35 157.56 59.48 156.92
  Q 61.38 156.35 63.47 156.23
  L 91.30 156.20
  Q 91.83 156.19 92.01 156.69
  L 95.84 167.03
  Z"
/>
<path fill="#9778af" d="
  M 140.17 262.80
  L 178.90 156.38
  A 0.34 0.34 0.0 0 1 179.22 156.16
  L 244.31 156.17
  A 0.34 0.34 0.0 0 1 244.63 156.63
  L 205.90 263.03
  A 0.34 0.34 0.0 0 1 205.58 263.25
  L 140.49 263.26
  A 0.34 0.34 0.0 0 1 140.17 262.80
  Z"
/>
<path fill="#55559e" d="
  M 63.47 156.23
  Q 61.38 156.35 59.48 156.92
  C 57.35 157.56 56.71 159.68 55.25 161.13
  Q 47.11 169.23 39.01 177.37
  C 38.43 177.96 37.45 178.64 36.75 179.37
  Q 36.52 179.62 36.20 179.71
  Q 35.60 179.89 35.16 180.98
  L 26.27 156.56
  A 0.27 0.26 80.2 0 1 26.52 156.20
  L 63.47 156.23
  Z"
/>
<path fill="#bd97ad" d="
  M 299.20 156.23
  Q 299.32 156.80 299.82 156.88
  Q 300.05 156.92 299.89 157.09
  Q 299.71 157.27 299.64 157.49
  Q 299.50 157.96 299.01 157.88
  Q 298.16 157.74 297.88 158.53
  Q 297.71 159.01 297.21 158.89
  Q 296.39 158.70 295.96 159.31
  Q 295.69 159.67 295.26 159.79
  Q 293.73 160.21 292.86 161.58
  Q 292.61 161.97 292.15 161.88
  Q 291.33 161.72 290.91 162.37
  Q 290.68 162.73 290.26 162.81
  Q 288.73 163.11 287.90 164.59
  Q 287.68 164.99 287.23 164.89
  Q 286.22 164.67 285.87 165.54
  Q 285.69 166.00 285.20 165.89
  Q 284.39 165.71 283.95 166.31
  Q 283.69 166.67 283.25 166.79
  Q 281.73 167.21 280.86 168.58
  Q 280.61 168.97 280.15 168.88
  Q 279.33 168.72 278.91 169.37
  Q 278.68 169.73 278.26 169.81
  Q 276.73 170.11 275.90 171.59
  Q 275.68 171.99 275.23 171.89
  Q 274.22 171.67 273.87 172.54
  Q 273.69 173.00 273.20 172.89
  Q 272.39 172.71 271.95 173.31
  Q 271.69 173.67 271.25 173.79
  Q 269.74 174.21 268.86 175.57
  Q 268.62 175.95 268.17 175.87
  Q 267.63 175.78 267.21 176.05
  Q 266.78 176.33 266.87 176.84
  Q 267.05 177.85 266.26 177.99
  L 258.50 156.69
  A 0.36 0.35 79.7 0 1 258.83 156.21
  L 299.20 156.23
  Z"
/>
<path fill="#d1a9aa" d="
  M 299.20 156.23
  L 323.57 156.26
  Q 324.12 156.26 324.31 156.77
  L 341.88 205.00
  Q 341.46 205.56 340.79 205.05
  Q 340.34 204.71 340.08 205.21
  Q 339.71 205.95 338.91 205.90
  Q 338.51 205.87 338.23 206.15
  L 336.87 207.47
  Q 336.45 207.88 335.87 207.86
  Q 335.23 207.83 334.91 208.39
  Q 334.71 208.74 334.32 208.81
  Q 332.74 209.08 331.90 210.58
  Q 331.67 210.98 331.22 210.89
  Q 330.22 210.67 329.88 211.53
  Q 329.69 211.98 329.22 211.88
  Q 328.39 211.71 327.87 212.38
  Q 327.56 212.77 327.07 212.86
  Q 325.59 213.13 324.89 214.54
  Q 324.69 214.96 324.23 214.88
  Q 323.20 214.71 322.69 215.63
  Q 322.55 215.88 322.26 215.88
  L 321.78 215.88
  A 0.68 0.67 -67.2 0 0 321.30 216.08
  L 319.82 217.52
  Q 319.44 217.89 318.91 217.86
  Q 318.30 217.82 317.96 218.29
  Q 317.66 218.69 317.17 218.82
  Q 315.84 219.17 315.01 220.39
  Q 314.71 220.83 314.18 220.89
  Q 312.06 221.12 310.77 222.64
  Q 310.57 222.88 310.25 222.88
  L 309.78 222.88
  A 0.68 0.67 -67.2 0 0 309.30 223.08
  L 307.82 224.52
  Q 307.44 224.89 306.90 224.86
  Q 306.24 224.82 305.91 225.39
  Q 305.71 225.74 305.32 225.81
  Q 303.74 226.08 302.90 227.58
  Q 302.67 227.98 302.22 227.89
  Q 301.21 227.67 300.87 228.54
  Q 300.69 229.01 300.20 228.89
  Q 299.39 228.71 298.95 229.31
  Q 298.68 229.68 298.25 229.80
  Q 296.73 230.21 295.86 231.58
  Q 295.61 231.98 295.15 231.88
  Q 294.38 231.73 293.96 232.31
  Q 293.69 232.67 293.26 232.79
  Q 291.70 233.23 290.81 234.63
  Q 290.75 234.73 290.25 234.88
  Q 290.09 234.92 290.01 234.77
  Q 289.81 234.38 289.50 234.70
  L 287.63 236.70
  L 266.26 177.99
  Q 267.05 177.85 266.87 176.84
  Q 266.78 176.33 267.21 176.05
  Q 267.63 175.78 268.17 175.87
  Q 268.62 175.95 268.86 175.57
  Q 269.74 174.21 271.25 173.79
  Q 271.69 173.67 271.95 173.31
  Q 272.39 172.71 273.20 172.89
  Q 273.69 173.00 273.87 172.54
  Q 274.22 171.67 275.23 171.89
  Q 275.68 171.99 275.90 171.59
  Q 276.73 170.11 278.26 169.81
  Q 278.68 169.73 278.91 169.37
  Q 279.33 168.72 280.15 168.88
  Q 280.61 168.97 280.86 168.58
  Q 281.73 167.21 283.25 166.79
  Q 283.69 166.67 283.95 166.31
  Q 284.39 165.71 285.20 165.89
  Q 285.69 166.00 285.87 165.54
  Q 286.22 164.67 287.23 164.89
  Q 287.68 164.99 287.90 164.59
  Q 288.73 163.11 290.26 162.81
  Q 290.68 162.73 290.91 162.37
  Q 291.33 161.72 292.15 161.88
  Q 292.61 161.97 292.86 161.58
  Q 293.73 160.21 295.26 159.79
  Q 295.69 159.67 295.96 159.31
  Q 296.39 158.70 297.21 158.89
  Q 297.71 159.01 297.88 158.53
  Q 298.16 157.74 299.01 157.88
  Q 299.50 157.96 299.64 157.49
  Q 299.71 157.27 299.89 157.09
  Q 300.05 156.92 299.82 156.88
  Q 299.32 156.80 299.20 156.23
  Z"
/>
<path fill="#7968a7" d="
  M 95.84 167.03
  L 117.94 227.78
  Q 117.40 227.98 117.01 227.86
  Q 116.49 227.69 116.58 227.14
  Q 116.73 226.18 116.05 225.63
  Q 115.63 225.28 115.63 224.74
  L 115.63 223.75
  A 0.39 0.38 9.7 0 0 115.37 223.39
  L 114.91 223.22
  Q 114.53 223.09 114.25 223.37
  L 102.30 235.32
  Q 102.12 235.50 102.12 235.76
  L 102.12 236.06
  Q 102.12 236.49 101.82 236.80
  L 77.31 261.32
  A 0.62 0.62 0.0 0 0 77.68 262.37
  Q 77.96 262.41 78.11 262.60
  Q 78.37 262.94 77.97 263.07
  L 77.54 263.22
  L 65.64 263.21
  Q 65.10 263.21 64.92 262.71
  L 48.43 217.38
  Q 48.37 215.25 49.12 214.50
  Q 64.40 199.21 79.69 183.93
  Q 80.04 183.59 80.10 183.10
  Q 80.12 182.93 80.12 182.75
  Q 80.13 182.49 80.30 182.32
  L 94.48 168.13
  Q 94.60 168.01 94.74 168.09
  L 95.20 168.33
  A 0.40 0.36 47.7 0 0 95.52 168.36
  Q 96.05 168.18 95.84 167.03
  Z"
/>
<path fill="#e7bda6" d="
  M 341.88 205.00
  L 362.97 262.91
  Q 363.10 263.26 362.72 263.26
  L 297.77 263.26
  Q 297.29 263.26 297.13 262.81
  L 287.63 236.70
  L 289.50 234.70
  Q 289.81 234.38 290.01 234.77
  Q 290.09 234.92 290.25 234.88
  Q 290.75 234.73 290.81 234.63
  Q 291.70 233.23 293.26 232.79
  Q 293.69 232.67 293.96 232.31
  Q 294.38 231.73 295.15 231.88
  Q 295.61 231.98 295.86 231.58
  Q 296.73 230.21 298.25 229.80
  Q 298.68 229.68 298.95 229.31
  Q 299.39 228.71 300.20 228.89
  Q 300.69 229.01 300.87 228.54
  Q 301.21 227.67 302.22 227.89
  Q 302.67 227.98 302.90 227.58
  Q 303.74 226.08 305.32 225.81
  Q 305.71 225.74 305.91 225.39
  Q 306.24 224.82 306.90 224.86
  Q 307.44 224.89 307.82 224.52
  L 309.30 223.08
  A 0.68 0.67 -67.2 0 1 309.78 222.88
  L 310.25 222.88
  Q 310.57 222.88 310.77 222.64
  Q 312.06 221.12 314.18 220.89
  Q 314.71 220.83 315.01 220.39
  Q 315.84 219.17 317.17 218.82
  Q 317.66 218.69 317.96 218.29
  Q 318.30 217.82 318.91 217.86
  Q 319.44 217.89 319.82 217.52
  L 321.30 216.08
  A 0.68 0.67 -67.2 0 1 321.78 215.88
  L 322.26 215.88
  Q 322.55 215.88 322.69 215.63
  Q 323.20 214.71 324.23 214.88
  Q 324.69 214.96 324.89 214.54
  Q 325.59 213.13 327.07 212.86
  Q 327.56 212.77 327.87 212.38
  Q 328.39 211.71 329.22 211.88
  Q 329.69 211.98 329.88 211.53
  Q 330.22 210.67 331.22 210.89
  Q 331.67 210.98 331.90 210.58
  Q 332.74 209.08 334.32 208.81
  Q 334.71 208.74 334.91 208.39
  Q 335.23 207.83 335.87 207.86
  Q 336.45 207.88 336.87 207.47
  L 338.23 206.15
  Q 338.51 205.87 338.91 205.90
  Q 339.71 205.95 340.08 205.21
  Q 340.34 204.71 340.79 205.05
  Q 341.46 205.56 341.88 205.00
  Z"
/>
<path fill="#9778af" d="
  M 117.94 227.78
  L 130.62 262.69
  Q 130.82 263.23 130.23 263.23
  L 77.54 263.22
  L 77.97 263.07
  Q 78.37 262.94 78.11 262.60
  Q 77.96 262.41 77.68 262.37
  A 0.62 0.62 0.0 0 1 77.31 261.32
  L 101.82 236.80
  Q 102.12 236.49 102.12 236.06
  L 102.12 235.76
  Q 102.12 235.50 102.30 235.32
  L 114.25 223.37
  Q 114.53 223.09 114.91 223.22
  L 115.37 223.39
  A 0.39 0.38 9.7 0 1 115.63 223.75
  L 115.63 224.74
  Q 115.63 225.28 116.05 225.63
  Q 116.73 226.18 116.58 227.14
  Q 116.49 227.69 117.01 227.86
  Q 117.40 227.98 117.94 227.78
  Z"
/>
</svg>
